<svg width="16" height="12" viewBox="0 0 16 12" fill="none" xmlns="http://www.w3.org/2000/svg">
  <path d="M12.666 3.33341L9.99935 6.00008H11.9993C11.9993 8.20675 10.206 10.0001 7.99935 10.0001C7.32602 10.0001 6.68602 9.83341 6.13268 9.53341L5.15935 10.5067C5.97935 11.0267 6.95268 11.3334 7.99935 11.3334C10.946 11.3334 13.3327 8.94675 13.3327 6.00008H15.3327L12.666 3.33341ZM3.99935 6.00008C3.99935 3.79341 5.79268 2.00008 7.99935 2.00008C8.67268 2.00008 9.31268 2.16675 9.86602 2.46675L10.8393 1.49341C10.0193 0.973415 9.04602 0.666748 7.99935 0.666748C5.05268 0.666748 2.66602 3.05341 2.66602 6.00008H0.666016L3.33268 8.66675L5.99935 6.00008H3.99935Z" fill="#BDBDBD"/>
</svg>
