<svg width="34" height="34" viewBox="0 0 34 34" fill="none" xmlns="http://www.w3.org/2000/svg">
  <path d="M17.0012 0.0688477C7.65535 0.0688477 0.0703125 7.65389 0.0703125 16.9997C0.0703125 26.3456 7.65535 33.9306 17.0012 33.9306C26.3471 33.9306 33.9321 26.3456 33.9321 16.9997C33.9321 7.65389 26.3471 0.0688477 17.0012 0.0688477ZM17.0012 5.14812C19.8117 5.14812 22.0805 7.41686 22.0805 10.2274C22.0805 13.0379 19.8117 15.3067 17.0012 15.3067C14.1907 15.3067 11.9219 13.0379 11.9219 10.2274C11.9219 7.41686 14.1907 5.14812 17.0012 5.14812ZM17.0012 29.19C12.7685 29.19 9.02676 27.0228 6.84267 23.7382C6.89346 20.369 13.615 18.5235 17.0012 18.5235C20.3705 18.5235 27.109 20.369 27.1597 23.7382C24.9757 27.0228 21.2339 29.19 17.0012 29.19Z" fill="white"/>
</svg>
