<svg width="28" height="28" viewBox="0 0 28 28" fill="none" xmlns="http://www.w3.org/2000/svg">
  <path d="M13.9993 -0.746094C5.85983 -0.746094 -0.746094 5.85983 -0.746094 13.9993C-0.746094 22.1387 5.85983 28.7446 13.9993 28.7446C22.1387 28.7446 28.7446 22.1387 28.7446 13.9993C28.7446 5.85983 22.1387 -0.746094 13.9993 -0.746094ZM13.9993 3.67752C16.447 3.67752 18.4229 5.6534 18.4229 8.10113C18.4229 10.5489 16.447 12.5247 13.9993 12.5247C11.5515 12.5247 9.57567 10.5489 9.57567 8.10113C9.57567 5.6534 11.5515 3.67752 13.9993 3.67752ZM13.9993 24.6159C10.3129 24.6159 7.05421 22.7285 5.15205 19.8679C5.19629 16.9336 11.0502 15.3264 13.9993 15.3264C16.9336 15.3264 22.8023 16.9336 22.8465 19.8679C20.9443 22.7285 17.6856 24.6159 13.9993 24.6159Z" fill="#BDBDBD"/>
</svg>
