<svg width="55" height="39" viewBox="0 0 55 39" fill="none" xmlns="http://www.w3.org/2000/svg">
  <path d="M43.2736 9.4117e-08L29.8523 15.5024L2.24846e-08 0.12062L28.2302 6.18724L43.2736 9.4117e-08Z" transform="translate(0 6.97656)" fill="#EE272A"/>
  <path d="M7.70901e-09 18.1587L15.7116 1.25489e-07L50.6969 17.9943L17.6489 10.9243L7.70901e-09 18.1587Z" transform="translate(2.72681 19.3477)" fill="white"/>
  <path d="M4.31491 0.0199853C1.74706 0.222846 -0.187589 2.51462 0.0144978 5.16003C0.205807 7.77254 2.49613 9.74358 5.06398 9.54072C7.67226 9.33786 9.60152 7.01045 9.40482 4.40067C9.1704 1.74978 6.92049 -0.221254 4.31491 0.0199853Z" transform="translate(22.9692 1.33105)" fill="white"/>
</svg>
