<svg width="14" height="14" viewBox="0 0 14 14" fill="none" xmlns="http://www.w3.org/2000/svg">
  <path d="M8.72683 4.33301L7.00016 6.05967L5.2735 4.33301L4.3335 5.27301L6.06016 6.99967L4.3335 8.72634L5.2735 9.66634L7.00016 7.93967L8.72683 9.66634L9.66683 8.72634L7.94016 6.99967L9.66683 5.27301L8.72683 4.33301ZM7.00016 0.333008C3.3135 0.333008 0.333496 3.31301 0.333496 6.99967C0.333496 10.6863 3.3135 13.6663 7.00016 13.6663C10.6868 13.6663 13.6668 10.6863 13.6668 6.99967C13.6668 3.31301 10.6868 0.333008 7.00016 0.333008ZM7.00016 12.333C4.06016 12.333 1.66683 9.93967 1.66683 6.99967C1.66683 4.05967 4.06016 1.66634 7.00016 1.66634C9.94016 1.66634 12.3335 4.05967 12.3335 6.99967C12.3335 9.93967 9.94016 12.333 7.00016 12.333Z" fill="#ffffff"/>
</svg>
